<svg width="143" height="48" viewBox="0 0 143 48" fill="none" xmlns="http://www.w3.org/2000/svg">
<path d="M24.147 0H11.631V11.5125H24.147V0ZM11.6325 28.5195H0V48H11.6325V28.5195ZM11.631 11.5125H0V17.7405H11.6325L11.631 11.5125Z" fill="#1D1E18"/>
<path d="M24.147 17.7405H11.6325L11.631 28.5345H24.147V17.7405ZM44.247 11.5125H64.4595V14.898H47.862V24.0795H60.876V27.465H47.862V39.441H44.247V11.5125ZM66.756 11.5125H70.1625V39.4575H66.7575L66.756 11.5125ZM73.3275 29.67C73.3275 23.169 77.055 19.1295 82.1325 19.1295C87.9165 19.1295 91.4835 24 90.7275 30.4665H76.7025C76.8945 35.4495 79.674 37.0455 82.4535 37.0455C85.8285 37.0455 87.2415 34.491 87.756 33.213L90.888 34.299C89.4105 38.3235 86.0685 40.0155 82.341 40.0155C76.896 40.0155 73.3275 36.375 73.3275 29.6685V29.67ZM87.225 27.6405C87.225 23.8875 84.8475 21.9405 82.116 21.9405C79.497 21.9405 77.055 24.048 76.7655 27.6405H87.225ZM97.83 29.349L91.4025 19.689H95.3865L97.5555 23.073C98.3709 24.3541 99.1744 25.6426 99.966 26.9385C100.528 26.139 101.01 25.4205 102.536 23.073L104.706 19.689H108.481L101.975 29.3805L108.882 39.441H104.787L102.295 35.688C100.816 33.453 100.368 32.7825 99.8055 31.8885L97.266 35.688L94.728 39.441H91.0005L97.83 29.349ZM110.842 11.5125H114.458V15.825H110.842V11.5125ZM110.972 19.6875H114.376V39.4425H110.972V19.6875ZM118.668 11.5125H122.073V39.4575H118.668V11.5125ZM125.239 29.67C125.239 23.169 128.967 19.1295 134.044 19.1295C139.827 19.1295 143.394 24 142.64 30.4665H128.629C128.821 35.4495 131.601 37.0455 134.38 37.0455C137.755 37.0455 139.169 34.491 139.683 33.213L142.816 34.299C141.337 38.3235 137.996 40.0155 134.268 40.0155C128.823 40.0155 125.238 36.375 125.238 29.6685L125.239 29.67ZM139.137 27.6405C139.137 23.8875 136.759 21.9405 134.028 21.9405C131.424 21.9405 128.967 24.048 128.694 27.6405H139.137Z" fill="#1D1E18"/>
</svg>
