<svg width="352" height="48" viewBox="0 0 352 48" fill="none" xmlns="http://www.w3.org/2000/svg">
<path d="M209.219 0.00100979C201.947 0.00100979 194.838 6.58683 194.021 16.1027V0.78549H183.577V46.9709H194.149V24.6152C194.149 18.353 198.587 9.51923 209.219 9.51923V0.00100979Z" fill="black"/>
<path d="M320.105 39.5772V7.93474H326.229C334.394 7.93474 341.028 13.0384 341.028 23.5008C341.028 33.9632 334.394 39.5772 326.229 39.5772H320.105ZM309.643 46.9775H327.505C338.477 46.9775 352 39.8324 352 23.5008C352 7.42437 338.477 0.789659 327.505 0.789659H309.643V46.9775Z" fill="black"/>
<path d="M269.613 24.0111C269.613 15.5901 273.951 8.70017 281.096 8.70017C287.985 8.70017 291.812 15.5901 291.812 24.0111C291.812 32.432 287.985 39.3219 281.096 39.3219C273.951 39.3219 269.613 32.432 269.613 24.0111ZM258.897 24.5214C258.897 38.3012 266.041 47.9981 277.268 47.9981C285.433 47.9981 290.281 42.6393 292.833 33.9631V46.9774H303.293V0.789555H292.833V13.0383C290.537 4.87246 285.689 0.0240106 278.034 0.0240106C266.552 0.0240106 258.897 10.4864 258.897 24.5214Z" fill="black"/>
<path d="M20.668 48C7.6548 48 0 37.5376 0 24.5233C0 10.9987 8.42028 0.025918 24.4954 0.025918C41.0808 0.025918 46.6943 11.2539 46.9495 17.6334H34.9569C34.7018 14.0609 31.6399 8.70208 24.2402 8.70208C16.3302 8.70208 11.227 15.592 11.227 24.013C11.227 32.4339 16.3302 39.3238 24.2402 39.3238C31.3847 39.3238 34.4466 33.7098 35.7224 28.0959H24.2402V23.5026H48.3338V46.9793H37.7637V32.1788C36.9982 37.5376 33.6811 48 20.668 48Z" fill="black"/>
<path d="M69.7643 47.9982C59.813 47.9982 53.6892 41.3635 53.6892 28.0941V0.789659H64.4059V28.0941C64.4059 34.984 67.723 38.3013 73.3365 38.3013C84.3084 38.3013 88.391 24.7767 88.391 15.335V0.789659H99.1077V46.9775H88.6461V29.8803C86.6048 39.322 80.9913 47.9982 69.7643 47.9982Z" fill="black"/>
<path d="M163.148 0C154.005 0 148.238 8.83306 146.355 17.0003C146.033 6.0552 140.651 0 132.04 0C124.6 0 117.697 6.63534 115.905 17.1324V0.785702H105.458V46.9746H116.039V30.4161C116.039 26.3111 117.75 9.46471 128.401 9.46471C135.301 9.46471 136.021 15.6892 136.021 24.1977V46.9746H146.597V30.4161C146.597 26.3111 148.379 9.46471 159.03 9.46471C165.924 9.46471 166.637 15.6892 166.637 24.1977V46.9746H177.227V19.6542C177.276 6.54733 172.648 0 163.148 0Z" fill="black"/>
<path d="M231.919 0C218.221 0 208.94 10.7413 208.94 23.9991C208.94 38.6073 217.767 47.998 231.919 47.998C245.617 47.998 255.064 37.2569 255.064 23.9991C255.064 9.39101 246.065 0 231.919 0ZM231.919 39.8224C223.944 39.8224 218.779 33.0709 218.779 23.9991C218.779 14.9274 223.963 8.17554 231.919 8.17554C239.875 8.17554 244.85 14.9274 244.85 23.9991C244.85 33.0709 239.869 39.8224 231.919 39.8224Z" fill="black"/>
</svg>
