<svg width="166" height="48" viewBox="0 0 166 48" fill="none" xmlns="http://www.w3.org/2000/svg">
<path fill-rule="evenodd" clip-rule="evenodd" d="M11.6471 2.30397C10.2151 5.16156 8.75724 8.73217 7.74777 11.8543C6.91408 14.4329 6.38333 15.0989 5.52704 14.6398C4.80818 14.2546 4.75727 13.6543 5.27228 11.6341C5.67314 10.0618 7.58478 4.06676 8.12786 2.67866C8.27191 2.3106 8.05595 2.2786 5.43139 2.2786H2.57808L2.22926 3.15142C2.0375 3.63149 1.61815 4.99468 1.29718 6.18046C-0.987702 14.6252 -0.205375 24.0301 3.2595 29.7727C5.94753 34.2278 10.0301 37.4182 14.4139 38.4895C16.3689 38.9673 19.9805 38.9645 21.918 38.484C27.9818 36.9795 33.0347 31.9977 35.32 25.2707C35.6158 24.4 35.8578 23.6625 35.8578 23.6316C35.8578 23.6008 34.9075 22.8807 33.7462 22.0314C32.5849 21.1821 31.3198 20.2503 30.9351 19.9609L30.2357 19.4349L29.3782 21.544C27.3449 26.5466 25.2329 28.2646 23.5016 26.3244C22.6845 25.4086 22.6782 24.7742 23.4694 23.1246C24.3241 21.3428 28.7359 16.9721 32.4959 14.1822C34.0939 12.9966 35.4013 11.9356 35.4013 11.8243C35.4013 11.5868 31.7853 6.53549 31.5531 6.44885C31.105 6.28128 24.4069 12.9372 21.7164 16.2236C20.2556 18.0081 19.9979 18.1805 19.2824 17.854C18.8592 17.6609 18.7366 17.4266 18.7366 16.8098C18.7366 15.6331 21.4055 12.223 26.099 7.40328C28.2373 5.20705 29.9437 3.36677 29.891 3.31373C29.838 3.26093 28.4715 2.59224 26.8546 1.82801L23.9145 0.438538L23.347 0.958394C21.7833 2.39199 18.3396 7.49815 15.5646 12.4978C14.1137 15.1119 13.6582 15.5399 12.8099 15.0852C12.1306 14.7212 12.2201 13.6646 13.1017 11.6428C13.9073 9.79543 16.3718 5.52665 18.2422 2.73924C18.8738 1.7983 19.3486 0.986279 19.2973 0.935071C19.1809 0.818253 14.0128 0.0103568 13.317 6.94786e-05C12.8949 -0.00610291 12.6031 0.396246 11.6471 2.30397ZM42.2498 19.3098V38.3985H46.5871H50.9245V30.9571V23.5157L51.7162 23.1845C52.7371 22.7572 53.4377 22.7664 54.5725 23.2211L55.4901 23.5887V30.9937V38.3985H59.7134H63.9366V19.767C63.9366 9.51972 63.8597 1.13351 63.7654 1.13099C63.6711 1.12848 61.8992 0.923184 59.8275 0.674916C57.7559 0.426649 55.9326 0.222736 55.7755 0.222279C55.5529 0.221365 55.4901 1.88174 55.4901 7.76517V15.3092H53.2073H50.9245V8.22238C50.9245 4.32463 50.8476 1.1351 50.7533 1.13442C50.659 1.13396 48.8871 0.930049 46.8154 0.681781C44.7437 0.433514 42.8689 0.228219 42.6492 0.225704C42.2719 0.221361 42.2498 1.28073 42.2498 19.3098ZM89.7326 19.3098V38.3985H93.8417H97.9508V19.7773V1.15637L97.2088 1.0288C96.2393 0.862375 90.6482 0.225936 90.1321 0.223193C89.7547 0.221364 89.7326 1.28164 89.7326 19.3098ZM73.4871 8.4183C70.1028 9.53916 68.2153 11.8634 67.1134 16.2671C66.505 18.6981 66.2512 25.5067 66.6619 28.3732C67.5994 34.9148 70.1961 38.156 75.0517 38.8457C76.8613 39.1026 79.2014 38.885 80.775 38.3132C83.8659 37.1901 85.9908 34.3261 86.8601 30.1106C87.4408 27.2948 87.7251 27.5673 83.7402 27.1197C81.8253 26.9048 80.0924 26.7313 79.8888 26.7343C79.6069 26.7382 79.482 27.0665 79.3635 28.1135C78.9702 31.5956 77.7669 33.299 76.1388 32.6792C75.1837 32.3155 74.838 31.1096 74.7157 27.7111L74.6063 24.6821H80.7179H86.8297L86.7021 21.0815C86.4588 14.2137 84.7179 10.4607 80.9971 8.78292C79.0964 7.92588 75.5014 7.75122 73.4871 8.4183ZM113.563 8.32114C112.016 8.9953 110.299 11.3954 109.912 13.4232C109.676 14.6632 109.427 14.2624 109.272 12.3945C109.191 11.4201 109.066 10.1317 108.995 9.53139L108.864 8.44024L105.062 8.50266L101.261 8.56529L101.202 28.2826L101.144 48H105.254H109.365V40.3282C109.365 33.146 109.5 31.5922 109.946 33.6574C110.352 35.5375 111.854 37.6875 113.265 38.4086C114.246 38.9097 116.445 39.0155 117.511 38.6132C119.218 37.9685 120.532 35.8845 121.297 32.6045C121.738 30.7178 121.787 29.8356 121.796 23.6534C121.805 17.8817 121.741 16.4929 121.395 14.8872C120.584 11.1181 119.517 9.247 117.713 8.42653C116.614 7.92656 114.586 7.87513 113.563 8.32114ZM130.966 8.368C127.784 9.34644 125.818 11.7432 124.615 16.1093C124.159 17.7651 124.111 18.4681 124.111 23.5391C124.111 28.6201 124.159 29.3098 124.618 30.9688C125.623 34.6007 127.336 36.9441 129.849 38.1233C131.076 38.6994 131.375 38.7414 134.248 38.7414C137.217 38.7414 137.384 38.7156 138.814 38.0368C142.039 36.5061 143.979 33.3744 144.623 28.6587L144.783 27.4919L142.426 27.2265C141.13 27.0806 139.391 26.898 138.563 26.8205L137.057 26.6799L136.912 27.91C136.712 29.6191 136.163 31.3654 135.601 32.0803C135.234 32.548 134.928 32.6833 134.236 32.6833C132.775 32.6833 132.334 31.5625 132.098 27.2539L131.957 24.6821H138.156H144.355L144.234 21.4244C144.168 19.6328 143.942 17.3438 143.732 16.3379C142.832 12.0154 140.715 9.33067 137.437 8.35589C135.899 7.89845 132.472 7.90484 130.966 8.368ZM159.701 8.42035C158.119 9.14184 156.601 11.1522 155.923 13.4246C155.764 13.9597 155.573 14.3381 155.499 14.2654C155.424 14.1925 155.261 12.8802 155.136 11.349L154.907 8.56529H151.027H147.146L147.074 15.8807C147.034 19.9042 147.071 26.6191 147.157 30.8026L147.313 38.4088L151.338 38.3466L155.364 38.2842L155.478 29.1399C155.58 20.9832 155.636 19.8971 156.003 19.0844C156.487 18.0084 157.183 17.2174 158.035 16.7734C158.911 16.3171 160.89 16.3802 162.036 16.901L163.001 17.3397L163.254 16.3816C163.394 15.8547 163.851 14.189 164.27 12.6802C165.336 8.83779 165.343 9.10503 164.161 8.50814C162.891 7.86644 160.997 7.82918 159.701 8.42035ZM75.7445 14.1095C75.1455 14.7722 74.8928 15.7145 74.7415 17.8502L74.5976 19.8813H76.7579H78.9184L78.8339 18.4525C78.7204 16.5361 78.3739 14.8563 77.9616 14.2263C77.5418 13.5846 76.2789 13.5181 75.7445 14.1095ZM133 14.2368C132.554 14.9185 132.193 16.842 132.193 18.5408V19.8813H134.248H136.302V18.5209C136.302 16.8962 135.925 14.9347 135.475 14.2233C135.009 13.4858 133.486 13.4941 133 14.2368ZM111.01 15.3222C109.816 15.7973 109.237 19.3757 109.439 25.025C109.583 29.03 109.965 30.8378 110.792 31.4175C111.912 32.203 112.762 31.6971 113.276 29.94C113.673 28.5801 113.69 18.3545 113.298 17.0167C112.835 15.4413 112.092 14.8915 111.01 15.3222Z" fill="#421411"/>
</svg>
