<svg width="170" height="48" viewBox="0 0 170 48" fill="none" xmlns="http://www.w3.org/2000/svg">
<path d="M5.84302 38.6004C3.97635 38.6004 2.62635 38.2004 1.79302 37.4004C0.993018 36.567 0.593018 35.5837 0.593018 34.4504V32.7004C0.593018 31.567 0.993018 30.6004 1.79302 29.8004C2.62635 28.967 3.97635 28.5504 5.84302 28.5504C7.70968 28.5504 9.04302 28.967 9.84302 29.8004C10.6764 30.6004 11.093 31.567 11.093 32.7004V34.4504C11.093 35.5837 10.6764 36.567 9.84302 37.4004C9.04302 38.2004 7.70968 38.6004 5.84302 38.6004ZM5.84302 21.6504C3.97635 21.6504 2.62635 21.2504 1.79302 20.4504C0.993018 19.617 0.593018 18.6337 0.593018 17.5004V15.7504C0.593018 14.617 0.993018 13.6504 1.79302 12.8504C2.62635 12.017 3.97635 11.6004 5.84302 11.6004C7.70968 11.6004 9.04302 12.017 9.84302 12.8504C10.6764 13.6504 11.093 14.617 11.093 15.7504V17.5004C11.093 18.6337 10.6764 19.617 9.84302 20.4504C9.04302 21.2504 7.70968 21.6504 5.84302 21.6504Z" fill="black"/>
<path d="M19.508 44.9004L35.558 0.000366211H42.208L26.158 44.9004H19.508Z" fill="black"/>
<path d="M67.4039 8.90037C65.7373 8.90037 64.5706 8.56703 63.904 7.90037C63.2706 7.20037 62.954 6.36703 62.954 5.40037V3.95037C62.954 2.95037 63.2706 2.11703 63.904 1.45037C64.5706 0.7837 65.7373 0.450366 67.4039 0.450366C69.0706 0.450366 70.2206 0.7837 70.8539 1.45037C71.5206 2.11703 71.854 2.95037 71.854 3.95037V5.40037C71.854 6.36703 71.5206 7.20037 70.8539 7.90037C70.2206 8.56703 69.0706 8.90037 67.4039 8.90037ZM55.504 32.2504H63.7039V17.9504H55.504V12.2004H71.104V32.2504H78.704V38.0004H55.504V32.2504Z" fill="black"/>
<path d="M84.3344 32.2504H91.9344V17.9504H83.8344V12.2004H91.9344V8.45037C91.9344 6.25037 92.5677 4.46703 93.8344 3.10037C95.1344 1.70037 97.1344 1.00037 99.8344 1.00037H108.584V6.75037H99.3344V12.2004H108.584V17.9504H99.3344V32.2504H107.434V38.0004H84.3344V32.2504Z" fill="black"/>
<path d="M114.315 32.2504H121.915V17.9504H113.815V12.2004H121.915V8.45037C121.915 6.25037 122.548 4.46703 123.815 3.10037C125.115 1.70037 127.115 1.00037 129.815 1.00037H138.565V6.75037H129.315V12.2004H138.565V17.9504H129.315V32.2504H137.415V38.0004H114.315V32.2504Z" fill="black"/>
<path d="M162.245 12.2004H169.795L157.645 42.1504C156.879 44.0504 155.862 45.5004 154.595 46.5004C153.329 47.5004 151.595 48.0004 149.395 48.0004H144.295V42.2504H150.495L152.095 37.8504L141.695 12.2004H149.645L153.395 23.0504L155.745 30.5504H156.145L158.395 23.0504L162.245 12.2004Z" fill="black"/>
</svg>
